<?xml version="1.0" encoding="utf-8"?>
<!-- Generator: Adobe Illustrator 16.0.0, SVG Export Plug-In . SVG Version: 6.00 Build 0)  -->
<!DOCTYPE svg PUBLIC "-//W3C//DTD SVG 1.1//EN" "http://www.w3.org/Graphics/SVG/1.1/DTD/svg11.dtd">
<svg version="1.1" id="Layer_1" xmlns="http://www.w3.org/2000/svg" xmlns:xlink="http://www.w3.org/1999/xlink" x="0px" y="0px"
	 width="90px" height="90px" viewBox="0 0 90 90" enable-background="new 0 0 90 90" xml:space="preserve">
<path fill="#FFFFFF" d="M78.04,77.611l-3.023-1.765c-0.294-0.174-0.533-0.587-0.533-0.933v-52.25h3.696
	c1.144,0,1.645-0.823,1.125-1.84L72.92,8.32c-0.521-1.011-1.86-1.839-3.003-1.839h-3.618V0.716c0-0.339-0.276-0.615-0.619-0.615
	h-5.818c-0.345,0-0.621,0.276-0.621,0.615v5.765H20.085c-1.143,0-2.488,0.828-3.006,1.839l-6.386,12.503
	c-0.518,1.018-0.011,1.84,1.128,1.84h3.701v52.25c0,0.346-0.244,0.759-0.538,0.933l-3.028,1.765
	c-0.596,0.423-2.066,0.912-2.066,2.061v3.697c0,1.149,0.926,2.071,2.066,2.071h20.221v1.169H30.57v3.444h30.133v-3.444h-1.607V85.44
	H78.04c1.146,0,2.069-0.922,2.069-2.071v-3.697C80.109,78.523,79.211,78.359,78.04,77.611z M41.603,29.789
	c0-0.343,0.275-0.623,0.617-0.623h5.566c0.34,0,0.622,0.279,0.622,0.623v8.398c0,0.339-0.282,0.618-0.622,0.618H42.22
	c-0.342,0-0.617-0.279-0.617-0.618V29.789z M41.603,46.294c0-0.344,0.275-0.621,0.617-0.621h5.566c0.34,0,0.622,0.277,0.622,0.621
	v8.401c0,0.333-0.282,0.613-0.622,0.613H42.22c-0.342,0-0.617-0.28-0.617-0.613V46.294z M39.686,62.092
	c0-0.346,0.281-0.613,0.622-0.613h9.391c0.342,0,0.622,0.268,0.622,0.613v18.584c0,0.164-0.069,0.312-0.177,0.424H39.862
	c-0.108-0.111-0.177-0.26-0.177-0.424V62.092z M27.578,29.789c0-0.343,0.281-0.623,0.624-0.623h5.562
	c0.343,0,0.623,0.279,0.623,0.623v8.398c0,0.339-0.28,0.618-0.623,0.618h-5.562c-0.343,0-0.624-0.279-0.624-0.618V29.789z
	 M27.578,46.294c0-0.344,0.281-0.621,0.624-0.621h5.562c0.343,0,0.623,0.277,0.623,0.621v8.401c0,0.333-0.28,0.613-0.623,0.613
	h-5.562c-0.343,0-0.624-0.28-0.624-0.613V46.294z M27.578,71.209v-8.411c0-0.346,0.281-0.616,0.624-0.616h5.562
	c0.343,0,0.623,0.271,0.623,0.616v8.411c0,0.332-0.28,0.613-0.623,0.613h-5.562C27.859,71.822,27.578,71.541,27.578,71.209z
	 M62.452,71.209c0,0.332-0.276,0.613-0.616,0.613h-5.568c-0.341,0-0.623-0.281-0.623-0.613v-8.411c0-0.346,0.282-0.616,0.623-0.616
	h5.568c0.34,0,0.616,0.271,0.616,0.616V71.209z M62.452,54.695c0,0.333-0.276,0.613-0.616,0.613h-5.568
	c-0.341,0-0.623-0.28-0.623-0.613v-8.401c0-0.344,0.282-0.621,0.623-0.621h5.568c0.34,0,0.616,0.277,0.616,0.621V54.695z
	 M62.452,38.187c0,0.339-0.276,0.618-0.616,0.618h-5.568c-0.341,0-0.623-0.279-0.623-0.618v-8.398c0-0.343,0.282-0.623,0.623-0.623
	h5.568c0.34,0,0.616,0.279,0.616,0.623V38.187z"/>
</svg>
