<?xml version="1.0" encoding="utf-8"?>
<!-- Generator: Adobe Illustrator 16.0.0, SVG Export Plug-In . SVG Version: 6.00 Build 0)  -->
<!DOCTYPE svg PUBLIC "-//W3C//DTD SVG 1.1//EN" "http://www.w3.org/Graphics/SVG/1.1/DTD/svg11.dtd">
<svg version="1.1" id="Layer_1" xmlns="http://www.w3.org/2000/svg" xmlns:xlink="http://www.w3.org/1999/xlink" x="0px" y="0px"
	 width="90.001px" height="90px" viewBox="0 0 90.001 90" enable-background="new 0 0 90.001 90" xml:space="preserve">
<g>
	<path fill="#FFFFFF" d="M0.917,82.209c0,4.986,2.309,7.618,6.271,7.618h39.403c5.431,0,8.064-1.959,8.064-5.877v-7.557
		c0-3.752-2.747-6.271-8.064-6.271H7.188c-3.962,0-6.271,2.311-6.271,6.271V82.209L0.917,82.209z M8.081,77.287h39.413v5.369H8.081
		V77.287z M8.081,82.656"/>
	<path fill="#FFFFFF" d="M4.495,28.917v34.041h10.749v3.577h26.87v-3.577h7.162v-2.082l21.5-41.369v12.997h-2.703l2.501,12.542
		h1.995v5.082c0,0.875,0.63,1.618,1.496,1.767c0.299,0.061,1.906,0.446,1.906,2.075c0,1.003-0.445,1.529-1.032,1.799l-0.665-0.577
		c-0.332-0.287-0.812-0.287-1.154-0.016l-0.49,0.392c-0.227-0.263-0.403-0.663-0.403-1.303c0-0.988-0.795-1.791-1.791-1.791
		c-0.989,0-1.785,0.803-1.785,1.791c0,1.504,0.482,2.679,1.207,3.551L59.125,66.51l0.02,0.026h2.798l9.333-7.557
		c0.733,0.405,1.555,0.621,2.386,0.621c0.822,0,1.652-0.174,2.431-0.472l8.608,7.408h2.744l-9.717-8.368
		c1.086-0.92,1.83-2.311,1.83-4.207c0-2.827-1.793-4.39-3.413-5.125v-3.79h0.876l1.776-12.542h-2.652V9.37l2.513-4.391l-8.257-4.978
		l-37.47,52.208h-3.849l2.283-6.14V28.917H4.495z M50.388,33.378l3.76,9.648l-7.311-4.758l0.024-0.036L50.388,33.378z
		 M72.568,16.121l1.794-3.376v19.759h-1.794V16.121z M69.28,5.206l4.818,3.166l-3.087,5.869L69.28,5.206z M68.93,18.396l-5.545-3.57
		l3.428-5.965L68.93,18.396z M63.086,27.729l-2.046-9.306l5.23,3.393L63.086,27.729z M60.77,30.789l-5.792-3.707l3.858-5.625
		L60.77,30.789z M56.642,40.507l-3.692-9.875l6.482,4.433L56.642,40.507z M45.218,41.057l7.75,5.539l-3.124,5.51L45.218,41.057z
		 M37.801,50.469l4.312-5.877l5.299,11.425L37.801,50.469z M11.667,36.089H24.2V46.83H11.667V36.089z M11.667,46.83"/>
	<path fill="#FFFFFF" d="M85.101,77.287v-5.372h3.587v-3.584H60.026v3.584h3.586v5.372h-3.586v3.584h28.662v-3.584h-1.793H85.101z
		 M86.895,77.287"/>
</g>
</svg>
