<?xml version="1.0" encoding="utf-8"?>
<!-- Generator: Adobe Illustrator 16.0.0, SVG Export Plug-In . SVG Version: 6.00 Build 0)  -->
<!DOCTYPE svg PUBLIC "-//W3C//DTD SVG 1.1//EN" "http://www.w3.org/Graphics/SVG/1.1/DTD/svg11.dtd">
<svg version="1.1" id="Layer_1" xmlns="http://www.w3.org/2000/svg" xmlns:xlink="http://www.w3.org/1999/xlink" x="0px" y="0px"
	 width="204.967px" height="60px" viewBox="0 0 204.967 60" enable-background="new 0 0 204.967 60" xml:space="preserve">
<g id="pEtcNQ_1_" display="none">
	<g display="inline">
		<path fill-rule="evenodd" clip-rule="evenodd" fill="#F9FBFC" d="M-15.834-344.648c1.688-7.104-7.986-6.588-8.288-12.358
			c12.055,0,24.109,0,36.164,0c-0.668,0.676-1.336,1.352-2.005,2.027c-2.62,2.985-5.974,4.803-9.657,6.108
			C-5.167-348.019-9.425-342.174-15.834-344.648z"/>
		<path fill-rule="evenodd" clip-rule="evenodd" fill="#FCFCFC" d="M-86.403-162.129c-7.915-5.833-17.073-3.836-25.843-3.941
			c-4.15-0.049-7.913,0.091-8.271-5.755c10.27-1.332,20.826,0.974,31.021-2.153c-10.592,2.203-20.704-3.537-31.283-1.631
			c-1.441,0.26-1.518-1.817-1.521-3.145c4.053-2.274,8.488-1.347,12.768-1.415c33.703-0.532,67.422,0.957,101.112-0.865
			c21.894-0.275,43.766,1.452,65.662,0.832c4.945,0.002,9.896,0.002,14.839,0.001c12.307-0.002,24.619,0.01,36.917-0.007
			c2.068,0.007,4.14-0.074,6.147-0.654c3.42,0.107,6.833,0.884,10.245,0.276c0.258-0.643,0.666-1.172,1.167-1.631
			c9.454-1.365,7.107,5.872,8.082,10.886c1.268,6.524-3.226,5.548-6.982,5.725c-0.643,0.031-1.391,0.62-1.895,0.431
			c-17.848-6.69-26.547,6.505-36.576,16.785c-0.896,0.919-2.467,2.021-2.389,2.922c0.908,10.455-5.645,6.221-10.449,5.447
			c-1.986,1.576-5.287,2.271-4.037,6.019c-6.811,8.704-14.525,16.42-24.105,22.104c-1.119-0.221-1.791-0.892-2.013-2.013
			c-1.375-2.32-0.924-4.332,1.776-6.657c-5.717,3.945-9.48,1.224-14.514-0.344c-6.344-1.975-14.154,1.21-21.34,1.275
			c-2.861,0.027-5.713-3.343-8.621-3.432c-11.227-0.341-22.478-0.108-33.713,0.18c-4.334,0.111-8.269-0.025-11.733,4.771
			c-2.95,4.084-8.196,0.846-10.829-2.734c-2.316-3.148-5.909-6.521-3.094-11.311c2.758-1.82,5.367-0.733,7.963,0.559
			c-2.139-2.875-5.59-0.662-8.033-2.275c-3.246-1.785-2.106-6.131-4.979-8.316c-3.088,0.719,1.871,7.297-4.135,5.995
			c-3.723-0.807-3.697-3.661-2.82-6.107c2.658-7.431-2.915-5.281-6.317-5.733c-2.567-2.376-0.774-5.581-1.594-8.292
			c-0.095-1.174-0.021-2.325,0.471-3.301c0.306-1.191,1.399,0.419,0.415-0.473c-1.026-0.931-0.877,0.883-1.645,0.88
			c-0.844,0.25-1.646,0.296-2.485,0.168c-2.026-0.676-3.246-2.232-4.452-3.84c-0.671-0.895-0.791-2.134-1.804-2.798
			C-84.998-164.302-85.32-163.097-86.403-162.129z"/>
		<path fill-rule="evenodd" clip-rule="evenodd" fill="#2EC4C0" d="M-15.834-344.648c5.296-2.045,10.593-4.091,15.889-6.136
			c3.248,1.823,6.343-3.245,9.618-0.215c-1.756,2.44-0.658,6.184-3.676,8.047c-1.22,1.006-2.965,0.894-4.111,1.998
			c-0.865,1.765,0.629,3.084,0.83,4.627c-1.059,4.482-5.188,8.392-2.496,13.562c0.233,0.481,0.254,0.973,0.062,1.473
			c-0.192,0.383-0.388,0.765-0.579,1.152c-0.714,0.499-1.494,0.853-2.322,1.104c-1.64,0.445-3.263,0.922-4.488,2.21
			c-1.764,2.1-2.347,4.705-3.146,7.212c-0.24,0.884-0.55,1.74-0.873,2.595c-1.88,5.682-4.354,11.203-4.482,17.351
			c-0.033,1.018-0.153,2.01-0.309,3.012c-1.703,8.829-2.419,17.771-3.408,26.678c0.095,7.596-0.596,15.221,1.004,22.742
			c0.632,8.369,2.613,16.56,3.388,24.907c-0.666,2.784,1.001,5.935-1.275,8.489c-5.765,0.661-10.708-1.104-14.92-5.028
			c-1.493-1.842-0.606-4.509-2.162-6.406c0.166-1.265-1.181-0.117-0.734,0.276c1.882,1.657,0.372,2.749-1.23,3.58
			c-8.438-2.195-6.644-10.396-9.401-15.931c-0.859-4.451-2.122-8.806-3.22-13.202c-0.804-3.485-0.272-6.892,0.608-10.27
			c0.854-7.797,2.671-15.411,4.92-22.903c1.245-4.152,0.49-6.336-4.248-6.021c-0.979-0.158-1.787-0.598-2.432-1.349
			c-1.015-1.96-0.414-3.768,0.503-5.548c0.057-1.346,0.114-2.692,0.171-4.039c-0.543-0.481-0.709-0.945-0.501-1.391
			c0.204-0.437,0.402-0.655,0.596-0.655c0.079-1.132,0.16-2.263,0.239-3.395c2.23-6.744-1.045-14.42,3.516-20.771
			c-0.049-14.965,11.375-19.485,22.281-24.479c1.168-2.926,4.06-2.55,6.355-3.314L-15.834-344.648z"/>
		<path fill-rule="evenodd" clip-rule="evenodd" fill="#017EAA" d="M0.281-321.292c8.438,0.683,16.526-1.965,24.82-2.591
			c3.015-0.227,6.425-2.878,9.022,1c-1.838,4.737,0.24,11.015-5.582,14.185c-0.303,1.249-0.607,2.499-0.91,3.748
			c0.354,1.671-0.063,3.092-1.365,4.228c-0.475,0.426-0.59,0.933-0.348,1.521c-0.068,14.447-5.729,28.12-5.855,42.559
			c-2.795,8.282,0.359,17.271-2.987,25.469c-0.026,0.963-0.038,1.947-0.036,2.914c-0.797,3.523-1.462,7.071-0.605,10.7
			c0.449,1.215,0.895,2.435,1.402,3.631c-0.006,8.569,0.832,17.002,4.012,25.06c-2.329,3.358-5.693,2.84-8.902,2.127
			c-6.094-1.356-12.244-2.244-18.418-3.142c-7.031-1.023-11.475-4.773-10.057-12.778c2.094-3.977,5.307-2.162,8.279-1.602
			c1.474,0.262,2.912,1.923,4.346,0.854c1.035-0.772,0.07-2.283-0.221-3.467c-1.861-7.145-2.963-14.429-4.709-21.581
			c-1.28-5.053-0.146-10.389-1.887-15.393c-0.344-1.055-0.566-2.124-0.729-3.216c-0.399-9.595-0.83-19.185,0.265-28.759
			c2.035-5.73,0.936-11.845,2.091-17.683c1.601-4.873,1.647-10.147,3.719-14.9c0.393-0.888,0.932-1.696,1.579-2.42
			c3.742-1.145,7.728-0.571,12.601-1.31c-4.441-0.056-7.984,1.843-10.98-1.311c-1.051-2.588-0.857-4.933,1.307-6.902L0.281-321.292z
			"/>
		<path fill-rule="evenodd" clip-rule="evenodd" fill="#01B3A9" d="M-44.43-250.779c-1.304,3.392-2.378,6.822-1.67,10.534
			c1.936,6.367,0.89,13.276,3.556,19.512c0.428,3.779,3.238,8.244-0.836,11.045c-3.709,2.55-7.613,0.306-10.889-2.273
			c-1.797-0.211-3.594-0.421-5.391-0.632c-8.209-5.52-7.52-13.651-6.428-21.901c-0.043-6.598-0.086-13.195-0.131-19.793
			c2.65-5.812-1.682-12.995,3.59-18.293c0.199-1.118,0.4-2.236,0.6-3.355c2.477-7.034,7.658-7.04,13.544-5.215l0.267,0.929
			c4.348,5.097,2.749,11.234,2.571,16.943C-45.779-258.985-45.738-254.863-44.43-250.779z"/>
		<path fill-rule="evenodd" clip-rule="evenodd" fill="#FBFCFC" d="M-54.269-211.962c6.562,1.202,12.822,2.036,9.946-8.205
			c-0.62-2.977-3.04-6.353,1.796-8.123c2.916,5.394,0.974,13.216,8.223,16.443c1.729-0.443,3.047,0.242,4.15,1.516
			c4.705,1.88,9.41,3.76,14.115,5.641c0.35,0.191,0.697,0.383,1.045,0.574c0.572,8.534,5.283,12.545,13.662,12.002
			c7.988-0.518,15.061,5.04,23.18,3.246c0.176,1.838,0.051,3.562-1.766,4.641c-1.545,2.334-2.881,4.928-6.249,4.988
			c-7.717,0.004-15.427,0.006-23.146,0.001c-37.672-0.276-75.338,0.567-112.996-0.439c2.483-4.179,6.595-2.448,9.991-2.465
			c28.745-0.139,57.49-0.074,86.234-0.082c13.412-0.004,13.412-0.015,7.172-12.746c-1.215,3.096-1.846,7.014-5.289,6.552
			c-4.391-0.59,0.243-3.918-1.117-5.807c-3.684-5.112-7.729-9.408-14.875-8.083l-0.004-0.003c-2.851-3.148-5.873-2.305-8.739-0.168
			c-2.452,1.828-5.097,2.693-10.414,2.691C-52.07-202.993-55.96-208.12-54.269-211.962z"/>
		<path fill-rule="evenodd" clip-rule="evenodd" fill="#0FB3DF" d="M22.583-216.385c-1.192-1.91-3.642-3.452-1.823-6.242
			c0.072-3.96,1.767-8.115-1.402-11.69c-0.306-0.886-0.426-1.796-0.389-2.729c0.799-4.134,0.615-8.217-0.648-12.248
			c-0.587-3.805,0.589-7.401,1.295-11.046c1.673-4.208,5.885-4.286,9.263-5.723c1.175-1.246,2.001-2.773,3.288-3.922
			c1.652-1.043,3.307-1.937,5-0.068c3.62,5.952,2.217,13.505,6.206,19.341c0.637,1.393,0.976,2.853,1.007,4.381
			c-1.004,5.479,1.084,10.813,0.773,16.247c-0.08,0.936-0.449,1.754-1.07,2.423c-3.142,0.502-2.768,3.143-3.151,5.344
			c-1.47,2.107-2.749,4.318-4.03,6.539c-0.891,1.086-1.971,1.851-3.402,2.037C30.381-216.779,26.192-215.383,22.583-216.385z"/>
		<path fill-rule="evenodd" clip-rule="evenodd" fill="#0BB4DF" d="M36.148-270.616c-1.339,0.669-2.679,1.339-4.017,2.008
			c-0.771,1.268-2.988-5.633-2.99,0.549c0,1.451-1.318,2.05-2.83,1.72c-3.686-3.393-2.664-7.879-2.861-12.092
			c-0.172-8.572,5.039-11.642,12.592-12.312c3.859-0.057,7.719-0.113,11.579-0.17c4.077-0.863,8.48-2.373,8.71,4.393
			c0.07,4.428-2.068,7.644-5.551,10.123c-1.627,1.055-3.382,0.8-5.135,0.527c-2.336-0.084-4.822-0.906-6.655,1.41
			C38.162-273.083,37.557-271.548,36.148-270.616z"/>
		<path fill-rule="evenodd" clip-rule="evenodd" fill="#F9F9F9" d="M16.05-180.6c0.172-2.513,1.628-3.595,4.032-3.627
			c2.941,3.276,6.85,1.927,10.344,1.945c21.61,0.12,43.336-1.292,64.799,0.498c16.544,1.379,28.408-4.375,39.375-15.354
			c4.877-4.881,10.683-8.835,16.066-13.21c0.611,0.447,0.814,0.895,0.611,1.342c-0.203,0.448-0.406,0.671-0.611,0.671
			c-6.533,10.093-17.869,15.751-24.109,26.115c0.004,0.578,0.008,1.155,0.016,1.731c-3.256,2.124-6.594,1.585-9.955,0.31
			c-1.45,0.634-2.901,1.266-4.352,1.9c-13.223-2.106-26.536-0.399-39.797-0.958c-4.959-0.001-9.913,0.005-14.871,0
			C43.759-180.087,29.811-177.465,16.05-180.6z"/>
		<path fill-rule="evenodd" clip-rule="evenodd" fill="#07B5DE" d="M46.105-278.613c1.558,0.738,3.116,1.477,4.675,2.216
			c-0.987,8.586-1.976,17.173-2.963,25.76c-1.949-3.854-3.727,1.656-5.633,0.103c-7.34-5.092-4.013-13.392-6.036-20.082
			c0.011-2.025,0.021-4.05,0.032-6.076c6.929,0.352,6.929,0.352,8.369,6.911C46.094-272.938,43.505-276.315,46.105-278.613z"/>
		<path fill-rule="evenodd" clip-rule="evenodd" fill="#579EC1" d="M-122.309-179.677c38.09-0.078,76.179-0.157,114.269-0.235
			c0,0.466,0,0.931,0,1.397c-38.087-0.08-76.174-0.16-114.26-0.24L-122.309-179.677z"/>
		<path fill-rule="evenodd" clip-rule="evenodd" fill="#F7FAF9" d="M-86.403-162.129c0.339-2.576-0.819-7.56,4.22-2.724
			c1.623,1.557,2.991,3.378,4.477,5.08c0.185,0.599,0.338,1.206,0.336,1.822c-0.004,1.533,0.076,3.07-0.155,4.596
			c0.486-1.469,0.647-3.286,2.976-2.799c3.958,2.538-0.601,5.445,0.354,8.113c-1.767,4.012-3.42,8.106-7.396,10.544
			c-2.195-2.164-1.93-4.236-0.819-6.568c1.105-2.327,4.488-6.8-2.451-3.208c-0.406,0.21-1.168-0.27-1.765-0.429
			C-82.16-152.442-92.25-157.41-86.403-162.129z"/>
		<path fill-rule="evenodd" clip-rule="evenodd" fill="#F4F9FA" d="M36.042-290.743c-5.791,1.727-10.706,4.222-10.127,11.539
			c-1.717,6.112-0.78,12.8-4.036,18.578c-2.186,3.864-1.634,8.058-1.464,12.204c0.678,1.659,1.027,3.257-0.816,4.452
			c-1.307,0.136-2.109-0.435-2.412-1.712c0.047-3.923-0.647-7.888,0.668-11.74c0.02-14.441,3.137-28.285,8.066-41.779
			C26.586-293.143,29.545-289.827,36.042-290.743z"/>
		<path fill-rule="evenodd" clip-rule="evenodd" fill="#FAFBFB" d="M-66.087-234.495c2.931,7.069,1.586,15.393,6.428,21.901
			c-9.58-1.813-16.018-13.465-11.711-21.308C-69.986-236.424-67.926-234.948-66.087-234.495z"/>
		<path fill-rule="evenodd" clip-rule="evenodd" fill="#0FB4DF" d="M22.583-216.385c3.575,0.18,2.944-3.994,5.338-5.212
			c3.696,1.019,3.161,5.708,6.216,7.234c0.75,2.341,0.728,4.738,0.55,7.164c-1.437,2.806-2.445,6.194-6.806,5.012
			C22.807-205.686,21.795-210.699,22.583-216.385z"/>
		<path fill-rule="evenodd" clip-rule="evenodd" fill="#05B2DF" d="M34.149-208.366c-1.273-1.997-1.245-3.996-0.012-5.998
			c0.67-0.668,1.338-1.336,2.008-2.005c1.467,0.373,2.949,1.531,4.343-0.135c0.292-0.76,0.585-1.488,0.815-2.257
			c1.431-3.086-0.035-7.023,2.868-9.649c-0.66-6.03-1.319-12.06-1.979-18.091c0.897-1.445,2.209-2.846,3.83-1.866
			c1.516,0.918,1.227,2.772,0.34,4.303c0.025,9.062,0.051,18.125,0.076,27.187C46.042-206.461,44.396-205.322,34.149-208.366z"/>
		<path fill-rule="evenodd" clip-rule="evenodd" fill="#01B4D5" d="M47.892-208.22c0.569,3.512,1.14,7.024,1.796,11.075
			c-6.012-0.493-11.759-0.963-17.506-1.435c-0.82-1.114-1.305-2.309-0.262-3.502C36.154-206.936,41.766-208.262,47.892-208.22z"/>
		<path fill-rule="evenodd" clip-rule="evenodd" fill="#FAFBFB" d="M-48.485-281.152c-4.876,0.795-10.546-0.467-13.544,5.214
			c-0.088-1.573-0.178-3.149-0.266-4.723v-0.002c8.531-5.512,5.189-14.258,6.117-21.905c0.408-3.381-2.982-7.045,1.92-11.278
			c0,9.199,0.129,17.301-0.038,25.396c-0.159,7.711,3.327,2.89,5.768,1.809C-48.513-284.812-48.499-282.982-48.485-281.152z"/>
		<path fill-rule="evenodd" clip-rule="evenodd" fill="#F9FAFA" d="M54.218-292.962c4.784-8.296,9.19,0.528,13.314,1.183
			c2.896,0.46-0.109,6.407-2.101,10.671c-2.569-2.886-3.078-7.106-7.008-7.576C56.682-289.776,55.229-291.15,54.218-292.962z"/>
		<path fill-rule="evenodd" clip-rule="evenodd" fill="#2CC6BD" d="M-0.013-342.938c1.995-3.21,4.006-0.537,6.01-0.015
			c-0.531,7.128-3.213,13.641-5.777,20.186c-9.015-5.908,0.644-9.519,1.744-14.181C0.082-338.541-0.012-340.723-0.013-342.938z"/>
		<path fill-rule="evenodd" clip-rule="evenodd" fill="#FAFBFB" d="M-44.507-316.892c-0.96,6.957-0.998,14.07-3.516,20.768
			c1.18-9.415-2.938-18.367-2.967-28.203C-47.125-322.683-48.228-317.725-44.507-316.892z"/>
		<path fill-rule="evenodd" clip-rule="evenodd" fill="#20B3E5" d="M47.892-208.22c-5.524,2.745-13.876,0.881-15.71,9.64
			c-2.387-0.066-3.334-1.847-4.301-3.607c3.29-0.84,3.735-4.568,6.268-6.178c5.928-0.192,12-0.173,12.289-8.511
			C47.879-214.152,48.45-211.281,47.892-208.22z"/>
		<path fill-rule="evenodd" clip-rule="evenodd" fill="#FAFBFB" d="M-62.294-280.661c-2.462,2.081-4.924,4.161-7.789,6.583
			c-0.493-6.113,5.418-10.137,4.174-16.025c-0.258-1.219,1.373-1.146,2.308-0.912c1.739,0.437,3.042,1.439,3.022,3.409
			c-0.024,2.433-4.119,3.883-1.715,6.943V-280.661z"/>
		<path fill-rule="evenodd" clip-rule="evenodd" fill="#F4F9FA" d="M28.542-308.698c1.317-4.943,2.49-9.941,5.582-14.185
			C38.948-311.135,38.176-309.174,28.542-308.698z"/>
		<path fill-rule="evenodd" clip-rule="evenodd" fill="#91C5C3" d="M-55.945-133.881c0.327-0.043,0.725,0.022,0.971-0.142
			c4.027-2.687,11.672-0.954,11.748-0.302c0.715,6.084-3.508,4.291-6.949,3.336c-1.246-0.346-2.476-0.76-3.733-1.053
			c-0.632-0.146-1.312-0.088-1.968-0.123C-55.96-132.734-55.984-133.307-55.945-133.881z"/>
		<path fill-rule="evenodd" clip-rule="evenodd" fill="#F5F1F8" d="M17.854-257.421c0.072,4.304,0.147,8.607,0.223,12.91
			c3.043,4.021,1.418,8.04-0.004,12.06c-0.01,1.351-0.021,2.703-0.03,4.054c-0.589,0.889-1.144,0.867-1.663-0.063
			C16.282-238.144,14.846-247.896,17.854-257.421z"/>
		<path fill-rule="evenodd" clip-rule="evenodd" fill="#FAFBFB" d="M-62.628-272.582c-1.197,6.098-2.395,12.195-3.59,18.292
			C-64.723-260.328-71.718-268.033-62.628-272.582z"/>
		<path fill-rule="evenodd" clip-rule="evenodd" fill="#F9FBFC" d="M-15.871-344.685c-1.616,2.068-4.01,2.646-6.355,3.315
			c-1.213-1.854-2.428-3.707-4.064-6.208C-21.5-348.911-18.923-345.92-15.871-344.685z"/>
		<path fill-rule="evenodd" clip-rule="evenodd" fill="#0CB4DC" d="M46.362-244.064c-0.023-3.151-1.464-3.879-4.17-2.437
			c-0.004-1.344-0.006-2.688-0.008-4.033c1.825-2.914,3.662-5.221,5.633-0.103C47.991-248.3,48.071-245.984,46.362-244.064z"/>
		<path fill-rule="evenodd" clip-rule="evenodd" fill="#1FC6BB" d="M9.672-350.999c-3.213-0.269-6.32,4.232-9.618,0.215
			c3.114-1.905,6.193-3.896,9.982-4.196C9.915-353.652,9.793-352.326,9.672-350.999z"/>
		<path fill-rule="evenodd" clip-rule="evenodd" fill="#FAFBFB" d="M-69.749-261.591c2.014,2.989,1.72,5.367,0.419,7.733
			c-0.715,0-1.625,0.245-1.84-0.038C-73.054-256.382-72.55-258.703-69.749-261.591z"/>
		<path fill-rule="evenodd" clip-rule="evenodd" fill="#10B7DE" d="M54.218-292.962c2.892-0.039,4.688,1,4.206,4.278
			c-0.697,0.721-1.396,1.443-2.094,2.164c-1.596-4.055-5.145-4.235-8.707-4.393C49.82-291.595,52.019-292.278,54.218-292.962z"/>
		<path fill-rule="evenodd" clip-rule="evenodd" fill="#F3F7F4" d="M72.311-134.005c-2.325-4.468-1.881-7.079,4.037-6.019
			C76.659-136.906,73.547-136.084,72.311-134.005z"/>
		<path fill-rule="evenodd" clip-rule="evenodd" fill="#FBFCFC" d="M-40.193-202.307c-0.714,4.293,4.537,1.355,5.108,4.15
			c-6.097,1.397-6.097,1.397-5.112-4.153L-40.193-202.307z"/>
		<path fill-rule="evenodd" clip-rule="evenodd" fill="#DBEBF0" d="M16.379-228.46c0.554,0.025,1.109,0.046,1.663,0.062
			c-0.068,4.824-0.138,9.646-0.206,14.469c-0.562-0.798-1.126-1.599-1.688-2.398c-1.876-3.258-1.174-6.628-0.438-10
			C15.934-227.039,16.157-227.75,16.379-228.46z"/>
		<path fill-rule="evenodd" clip-rule="evenodd" fill="#EAFCF9" d="M18.073-232.451c0.002-4.02,0.002-8.04,0.002-12.059
			c0.562,0.007,1.123,0.007,1.685-0.001c2.224,2.483,1.313,5.225,0.655,7.946c0.021,0.736,0.041,1.472,0.062,2.207
			c0.558,0.913,0.336,1.557-0.662,1.937C19.233-232.433,18.654-232.443,18.073-232.451z"/>
		<path fill-rule="evenodd" clip-rule="evenodd" fill="#0FB4DF" d="M19.815-232.421c0.221-0.646,0.441-1.291,0.662-1.937
			c2.532,3.853,2.266,7.771,0.283,11.732C20.446-225.892,20.129-229.157,19.815-232.421z"/>
		<path fill-rule="evenodd" clip-rule="evenodd" fill="#F4F9FA" d="M26.266-300.722c-0.182-1.615-0.123-3.151,1.365-4.228
			c1.842,0.958,3.01,2.38,1.874,4.383C29.265-300.142,27.389-300.645,26.266-300.722z"/>
		<path fill-rule="evenodd" clip-rule="evenodd" fill="#FAFBFB" d="M-48.262-292.727c-0.031,0.682-0.063,1.364-0.095,2.046
			c-1.433,0.356-3.281,1.826-3.732-0.944c-0.176-1.088,0.488-2.312,0.769-3.475C-50.302-294.308-49.281-293.517-48.262-292.727z"/>
		<path fill-rule="evenodd" clip-rule="evenodd" fill="#E7F5F5" d="M46.215-148.118c-0.912,1.869-2.551,2.077-4.356,1.901
			c-2.067-2.188-4.831-1.738-7.417-1.945c-2.457-0.197-4.723-0.94-5.289-3.598c-0.76-3.57,0.877-5.674,4.47-6.039
			c-1.454-1.118-3.626-0.927-4.511-2.798c-1.574-9.096,5.479-6.919,10.18-7.813c0.9-0.343,1.701-0.849,2.414-1.499
			c1.674,0.018,3.348,0.035,5.021,0.052C55.944-159.086,55.856-155.361,46.215-148.118z"/>
		<path fill-rule="evenodd" clip-rule="evenodd" fill="#16B8AB" d="M46.215-148.118c7.897-7.065,3.496-14.418,0.512-21.74
			c0.33,0.031,0.691-0.013,0.982,0.11c0.701,0.293,14.318,0.736,15.395,0.244c1.531,5.583-9.752,10.362-1.153,16.061l0.036,0.108
			c-0.238,2.297,3.342,4.391,1.369,6.209c-2.184,2.016-4.27-0.142-5.453-2.296c-1.795-3.272-3.412-4.457-5.496-0.203
			C51.022-146.798,48.372-148.271,46.215-148.118z"/>
		<path fill-rule="evenodd" clip-rule="evenodd" fill="#FEF9F0" d="M-53.994-168.146c1.248,0.671,2.494,1.342,3.74,2.013
			c1.225,1.027,2.798,1.764,3.039,3.62c0.158,2.844,1.312,5.642,0.447,8.542c-0.381,0.746-0.88,1.401-1.494,1.97
			c-0.514,0.71-1.025,1.421-1.539,2.133c-3.117,0.59-6.244,1.083-9.441,0.864c-1.811-0.897-3.268-2.138-4.024-4.076
			c-1.408-4.681-0.876-9.036,2.147-12.979C-59.141-168.112-56.566-168.125-53.994-168.146z"/>
		<path fill-rule="evenodd" clip-rule="evenodd" fill="#0EB4AB" d="M40.749-157.922c-1.465,1.742-3.502,1.319-5.404,1.45
			c-2.181,0.15-4.998-0.358-4.875,3.09c0.12,3.305,2.943,2.57,5.063,3.073c2.501,0.592,7.396-2.104,6.326,4.093
			c-17.529-0.061-17.529-0.061-15.339-21.907c5.077-1.562,10.151-1.605,15.223,0.026c-1.021,3.953-4.277,2.139-6.454,2.162
			c-3.816,0.041-5.406,1.504-5.013,5.235C33.012-156.927,37.807-160.921,40.749-157.922z"/>
		<path fill-rule="evenodd" clip-rule="evenodd" fill="#13B6AD" d="M1.046-167.638c9.218-3.002,14.957-2.352,21.532-0.696
			c-11.492,4.307-3.305,15.38-8.607,22.584C7.727-152.431,17.461-165.176,1.046-167.638z"/>
		<path fill-rule="evenodd" clip-rule="evenodd" fill="#00B1B0" d="M66.868-168.191c5.141-3.239,10.646-0.745,18.615-1.84
			c-9.562,5.346-6.951,12.386-7.365,18.632c-0.125,1.884,0.316,4.511-2.42,4.535c-2.559,0.024-2.553-2.46-2.715-4.434
			c-0.403-4.906,0.785-9.924-1.037-14.729C71.194-168.959,67.866-165.84,66.868-168.191z"/>
		<path fill-rule="evenodd" clip-rule="evenodd" fill="#52A0C0" d="M-8.041-178.515c-0.003-0.466-0.003-0.931,0-1.397
			c8.03-0.229,16.061-0.458,24.091-0.688c14.068,0.215,28.136,0.43,42.203,0.646c0.656,0.329,0.874,0.657,0.657,0.988
			c-0.217,0.329-0.435,0.494-0.657,0.494C36.156-178.487,14.057-178.5-8.041-178.515z"/>
		<path fill-rule="evenodd" clip-rule="evenodd" fill="#DCEBF2" d="M-2.263-168.423c0.934,0.908,1.867,1.814,2.803,2.72
			c0.018,2.143-0.966,3.971-1.826,5.839c-0.705,1.504-1.503,2.936-2.984,3.836c-3.019-0.672-6.037-1.344-9.057-2.016
			c-3.114-2.87-1.904-5.849-0.227-8.844C-9.983-168.783-6.045-168.031-2.263-168.423z"/>
		<path fill-rule="evenodd" clip-rule="evenodd" fill="#599EC0" d="M72.305-179.948c13.322,0.489,26.789-2.453,39.961,1.67
			c-13.321-0.07-26.641-0.141-39.961-0.212c-0.654-0.324-0.871-0.647-0.654-0.973C71.867-179.786,72.083-179.948,72.305-179.948z"/>
		<path fill-rule="evenodd" clip-rule="evenodd" fill="#1382B3" d="M-36.585-168.498c0.311,6.567,0.621,13.135,1.061,22.414
			C-41.054-154.857-39.888-161.583-36.585-168.498z"/>
		<path fill-rule="evenodd" clip-rule="evenodd" fill="#88BAB8" d="M-7.113-135.984c3.293,0,5.638-0.27,7.887,0.08
			c2.012,0.312,6.035-2.078,5.289,2.904c-0.579,3.869-3.934,3.219-6.369,2.676C-2.739-130.867-5.451-131.676-7.113-135.984z"/>
		<path fill-rule="evenodd" clip-rule="evenodd" fill="#0879A2" d="M-12.355-166.48c-2.186,2.598-1.602,5.514-0.973,8.437
			c-0.936,3.447,0.847,7.267-2.535,12.457c0-8.715,0-15.571,0-22.426C-13.827-169.489-12.295-169.805-12.355-166.48z"/>
		<path fill-rule="evenodd" clip-rule="evenodd" fill="#6EAAA2" d="M38.362-131.916c0.119-0.307,0.149-0.768,0.373-0.9
			c2.396-1.425,4.578-4.062,7.762-1.657c1.123,0.848,2.027,2.337,1.021,3.356c-2.156,2.188-4.969,0.494-7.496,0.619
			C39.23-130.691,38.676-131.164,38.362-131.916z"/>
		<path fill-rule="evenodd" clip-rule="evenodd" fill="#62A9C5" d="M-12.355-166.48c-1.17-0.511-2.339-1.022-3.51-1.533
			c4.425-3.834,8.995-2.759,13.604-0.408C-5.201-165.558-8.807-166.168-12.355-166.48z"/>
		<path fill-rule="evenodd" clip-rule="evenodd" fill="#2285A5" d="M-4.271-156.028c-0.336-1.97,0.122-3.503,2.264-4.108
			c0.635-0.705,1.275-0.708,1.92-0.012c-0.643,4.483,2.476,8.76,0.879,13.479C-4.687-147.933,0.022-154.387-4.271-156.028z"/>
		<path fill-rule="evenodd" clip-rule="evenodd" fill="#BDDBDA" d="M29.301-130.432c-4.666,0.535-7.119-0.983-7.984-4.687
			c-0.076-0.327,1.408-1.37,2.26-1.504C28.618-137.418,27.999-133.553,29.301-130.432z"/>
		<path fill-rule="evenodd" clip-rule="evenodd" fill="#0D7BAC" d="M-60.265-166.13c-3.234,4.33-1.856,9.217-1.687,13.957
			c-0.712,0.821-1.434,0.872-2.164,0.024c-2.14-5.059-2.558-9.866,2.043-13.937C-61.492-166.985-60.89-167-60.265-166.13z"/>
		<path fill-rule="evenodd" clip-rule="evenodd" fill="#2E87A6" d="M-74.55-156.155c-2.961,2.469,0.292,6.694-3.141,9.648
			c-0.764-4.683-2.701-8.873-0.018-13.267c0.791,0.004,1.582,0.006,2.372,0.009c0.642-0.902,1.376-0.985,2.202-0.249
			C-73.606-158.728-74.079-157.441-74.55-156.155z"/>
		<path fill-rule="evenodd" clip-rule="evenodd" fill="#006EA3" d="M-47.622-162.3c-0.877-1.277-1.754-2.556-2.631-3.833
			c5.595-0.316,6.584,3.52,6.305,7.692c-0.177,2.63,1.74,7.452-4.313,6.439c0.084-0.626,0.121-1.255,0.113-1.886
			C-46.163-156.578-47.803-159.497-47.622-162.3z"/>
		<path fill-rule="evenodd" clip-rule="evenodd" fill="#80AEAC" d="M38.362-131.916c0.555,0.474,1.108,0.947,1.662,1.42
			c-5.841,4.869-6.074-0.459-8.891-5.253C34.719-133.848,36.54-132.881,38.362-131.916z"/>
		<path fill-rule="evenodd" clip-rule="evenodd" fill="#89BAB3" d="M-22.058-134c2.408-2.27,5.055-3.084,7.575-0.457
			c0.55,0.574,0.315,2.893-0.356,3.46c-1.852,1.561-3.585-0.091-5.268-0.964C-20.791-132.607-22.067-132.689-22.058-134z"/>
		<path fill-rule="evenodd" clip-rule="evenodd" fill="#B7E0D9" d="M-22.058-134c0.65,0.68,1.301,1.359,1.951,2.039
			c-1.205,0.523-2.393,1.431-3.619,1.486c-2.209,0.098-3.676-1.342-4.113-3.467c-0.166-0.809,0.391-1.767,0.618-2.656
			C-25.5-135.731-23.779-134.866-22.058-134z"/>
		<path fill-rule="evenodd" clip-rule="evenodd" fill="#1FB8AC" d="M41.743-168.097c-5.074-0.009-10.148-0.018-15.223-0.026
			c4.713-3.558,10.156-0.906,15.186-1.786C41.856-169.309,41.869-168.704,41.743-168.097z"/>
		<path fill-rule="evenodd" clip-rule="evenodd" fill="#0773A0" d="M-22.638-155.207c-2.33-4.14-1.816-8.543-0.832-15.105
			C-20.802-164.071-22.279-159.681-22.638-155.207z"/>
		<path fill-rule="evenodd" clip-rule="evenodd" fill="#E7F2F6" d="M-58.156-150.125c2.848-2.083,5.615-1.504,8.352,0.256
			c-0.586,4.757-4.759,2.188-7.057,3.453C-57.935-147.429-59.779-148.172-58.156-150.125z"/>
		<path fill-rule="evenodd" clip-rule="evenodd" fill="#2877A2" d="M-60.265-166.13l-0.904,0.056l-0.904-0.013
			c2.01-3.368,4.277-5.729,8.08-2.059C-55.531-165.754-58.068-166.468-60.265-166.13z"/>
		<path fill-rule="evenodd" clip-rule="evenodd" fill="#4FA0C2" d="M72.305-179.948c0.008,0.488,0.008,0.977,0,1.462
			c-4.685,0.004-9.367,0.012-14.052,0.017c-0.003-0.499-0.003-0.996,0-1.488C62.938-179.952,67.622-179.95,72.305-179.948z"/>
		<path fill-rule="evenodd" clip-rule="evenodd" fill="#00B29F" d="M66.868-168.191c2.291,0.075,4.603-0.001,6.867,0.291
			c1.072,0.138,2.707,0.877,1.016,2.291c-0.481,0.402-1.846-0.25-2.805-0.419C70.096-166.379,67.095-164.029,66.868-168.191z"/>
		<path fill-rule="evenodd" clip-rule="evenodd" fill="#489ABB" d="M-73.134-160.015c-0.736,0.083-1.473,0.165-2.207,0.248
			c-0.08-2.696,0.369-6.009,3.684-4.812C-69.536-163.812-71.99-161.43-73.134-160.015z"/>
		<path fill-rule="evenodd" clip-rule="evenodd" fill="#298AA7" d="M-58.156-150.125c0.432,1.237,0.863,2.473,1.295,3.71
			c-3.511-0.529-6.441-1.793-7.255-5.734c0.721-0.009,1.442-0.017,2.164-0.025C-60.687-151.491-59.421-150.808-58.156-150.125z"/>
		<path fill-rule="evenodd" clip-rule="evenodd" fill="#5AA0BA" d="M116.618-180.178c3.319-0.103,6.637-0.206,9.955-0.31
			C123.358-177.079,120.042-176.882,116.618-180.178z"/>
		<path fill-rule="evenodd" clip-rule="evenodd" fill="#0383B7" d="M-0.087-160.148c-0.641,0.007-1.281,0.011-1.92,0.012
			c-0.49-2.467,1.307-3.89,2.547-5.566C1.909-163.673,1.842-161.806-0.087-160.148z"/>
		<path fill-rule="evenodd" clip-rule="evenodd" fill="#EFFEFA" d="M61.951-153.443c0.698-2.499-0.614-5.865,3.455-7.37
			c0.266,3.382-1.485,5.463-3.42,7.471C61.987-153.335,61.951-153.443,61.951-153.443z"/>
		<path fill-rule="evenodd" clip-rule="evenodd" fill="#10A0CE" d="M-14.994-204.116c-0.52,0.122-0.867-0.07-1.044-0.574
			c0.65-1.895-2.415-3.732-0.089-5.653c1.408-9.118-2.143-17.473-4.01-26.087c-4.029-7.787-1.1-16.106-1.846-24.143
			c1.119-1.151,2.422-1.212,3.823-0.66c0.688,0.57,1.226,1.269,1.583,2.087c0.596,1.541,0.166,3.23,0.602,4.71
			c-1.942-12.944,1.286-25.793-0.042-38.654c0.536-5.442,2.743-10.459,3.869-15.742l-0.004-0.022
			c1.127-1.033,2.446-1.525,3.984-1.421c0.986,0.188,1.868,0.598,2.657,1.216c0.556,0.843,0.867,1.771,0.98,2.77
			c-1.293,3.764,0.541,7.928-1.476,11.602c-0.842,5.996,1.854,12.375-1.954,18.05c-1.895,10.708-1.77,21.418-0.033,32.129
			l-0.007-0.036c2.62,5.119-0.919,11.026,2.062,16.1c3.822,6.901,2.679,15.093,5.767,22.186c-1.303,2.33-3.015,4.061-5.918,4.051
			C-9.056-202.844-12.025-203.48-14.994-204.116z"/>
		<path fill-rule="evenodd" clip-rule="evenodd" fill="#008B84" d="M-44.43-250.779c-6.304-9.168-2.924-19.581-3.788-29.446
			c3.15-2.268,7.091-3.879,10.162-1.555c3.516,2.659-1.506,4.872-1.914,7.595C-41.147-266.334-44.57-258.899-44.43-250.779z"/>
		<path fill-rule="evenodd" clip-rule="evenodd" fill="#159FD3" d="M-14.079-292.728c2.864,14.312-1.322,28.622-0.031,42.937
			c0.181,2.008-0.196,3.949-1.987,5.286c-2.645-5.11,0.772-10.973-1.998-16.067l0,0c-3.139-7.538-0.635-15.12-0.043-22.661
			c0.144-1.828,1.637-3.56,0.09-5.416c0.025-0.713,0.052-1.425,0.078-2.139C-16.935-291.958-16.33-293.99-14.079-292.728z"/>
		<path fill-rule="evenodd" clip-rule="evenodd" fill="#05A1CC" d="M-20.136-236.431c4.523,8.206,9.443,16.351,4.01,26.087
			C-19.109-218.787-20.498-227.474-20.136-236.431z"/>
		<path fill-rule="evenodd" clip-rule="evenodd" fill="#0BA2C7" d="M-18.048-288.648c-0.016,9.358-0.031,18.717-0.047,28.077
			c-1.297-0.001-2.594-0.002-3.889-0.002C-20.671-269.932-19.361-279.29-18.048-288.648z"/>
		<path fill-rule="evenodd" clip-rule="evenodd" fill="#09A5C6" d="M-14.079-292.728c-1.299,0.647-2.596,1.295-3.893,1.941
			c0.524-6.474,2.388-12.513,5.825-18.046C-12.791-303.464-13.435-298.095-14.079-292.728z"/>
		<path fill-rule="evenodd" clip-rule="evenodd" fill="#06A0CA" d="M0.131-320.349c-0.058,2.507-0.114,5.015-0.17,7.522
			c-0.354,0.917-0.98,1.588-1.845,2.046c-0.082,0.67-0.165,1.339-0.248,2.009c-1.311,1.172-2.612,1.165-3.904-0.03l0.001,0.014
			c-3.537-5.596-0.592-9.026,3.979-11.915C-1.328-320.585-0.599-320.467,0.131-320.349z"/>
		<path fill-rule="evenodd" clip-rule="evenodd" fill="#E2F4F6" d="M-42.527-228.29c-2.6,2.264-1.139,5.428-1.796,8.123
			c-3.099-6.471-1.551-13.354-1.777-20.079C-43.112-236.797-43.023-232.483-42.527-228.29z"/>
		<path fill-rule="evenodd" clip-rule="evenodd" fill="#07A1CC" d="M-8.04-308.792c-1.37-0.021-2.74-0.042-4.111-0.063
			c0.017-3.888,0.827-7.45,4.104-9.999C-3.525-315.503-8.287-312.146-8.04-308.792z"/>
		<path fill-rule="evenodd" clip-rule="evenodd" fill="#259ED0" d="M-8.04-308.792c-0.003-3.354-0.005-6.707-0.008-10.062
			c1.483-2.283,3.779-1.931,5.991-1.851c-1.802,3.815-4.457,7.343-3.979,11.917l-1.002,0.003L-8.04-308.792z"/>
		<path fill-rule="evenodd" clip-rule="evenodd" fill="#2FC6BF" d="M-30.154-210.331c-1.384-0.506-2.767-1.011-4.15-1.517
			c0.262-1.565,0.525-3.132,0.788-4.7C-30.561-215.467-30.582-212.778-30.154-210.331z"/>
		<path fill-rule="evenodd" clip-rule="evenodd" fill="#37C4C4" d="M-0.013-342.938c2.374,1.432,1.943,3.788,1.978,5.99
			C-2.348-337.739-3.268-339.649-0.013-342.938z"/>
		<path fill-rule="evenodd" clip-rule="evenodd" fill="#17A0D0" d="M-7.992-244.509c-3.363-10.713-3.402-21.423,0.032-32.129
			C-7.969-265.929-7.981-255.218-7.992-244.509z"/>
		<path fill-rule="evenodd" clip-rule="evenodd" fill="#1579A8" d="M13.051-210.106c0.785,4.987,5.21,9.68-0.055,17.415
			C14.99-200.343,10.826-204.952,13.051-210.106z"/>
		<path fill-rule="evenodd" clip-rule="evenodd" fill="#1D9FCC" d="M-6.088-202.207c1.974-1.352,3.947-2.703,5.919-4.052
			c-0.346,2.432,3.242,5.207,0.531,6.915C-1.737-198.022-4.334-200.235-6.088-202.207z"/>
		<path fill-rule="evenodd" clip-rule="evenodd" fill="#0D7FAD" d="M-1.055-227.116c3.749,4.105,3.081,8.408,1.606,12.793
			C0.016-218.587-0.519-222.852-1.055-227.116z"/>
		<path fill-rule="evenodd" clip-rule="evenodd" fill="#1A9CC9" d="M-6.036-308.802c1.302,0.011,2.604,0.021,3.905,0.03
			c-1.908,4.525-0.718,9.901-3.874,14.083C-6.015-299.392-6.025-304.097-6.036-308.802z"/>
		<path fill-rule="evenodd" clip-rule="evenodd" fill="#0C7AAC" d="M7.651-290.218c0,3.763,0,7.527,0,11.291
			c-0.334,0.009-0.668,0.018-1.002,0.027c0-3.824,0-7.649,0-11.473C6.983-290.321,7.317-290.269,7.651-290.218z"/>
		<path fill-rule="evenodd" clip-rule="evenodd" fill="#0F7DAB" d="M-1.883-310.781c0.615-0.682,1.23-1.363,1.845-2.045
			c3.203-0.001,6.406-0.001,9.608-0.001C5.838-311.297,2.293-308.875-1.883-310.781z"/>
		<path fill-rule="evenodd" clip-rule="evenodd" fill="#189CCC" d="M-5.937-228.444c-4.224-4.914-1.217-10.753-2.062-16.1
			C-4.084-239.591-6.928-233.772-5.937-228.444z"/>
		<path fill-rule="evenodd" clip-rule="evenodd" fill="#0F7CAE" d="M11.747-292.084c3.355,2.222,2.361,4.904,1.473,8.274
			C12.126-286.808,9.668-288.844,11.747-292.084z"/>
		<path fill-rule="evenodd" clip-rule="evenodd" fill="#177DAC" d="M13.147-253.941c-1.674-3.925-1.441-7.275-0.195-11.26
			C14.608-261.26,14.391-257.91,13.147-253.941z"/>
		<path fill-rule="evenodd" clip-rule="evenodd" fill="#0F7DAB" d="M20.344-315.211c0.903,0.818,2.09,1.428,2.051,1.945
			c-0.117,1.544-1.471,2.145-2.872,2.147c-1.327,0.002-3.075-0.264-2.388-2.108C17.467-314.117,19.135-314.509,20.344-315.211z"/>
		<path fill-rule="evenodd" clip-rule="evenodd" fill="#167AB2" d="M9.038-204.996c-1.262-4.134-1.397-6.646-0.103-9.856
			C10.633-211.723,10.146-209.142,9.038-204.996z"/>
		<path fill-rule="evenodd" clip-rule="evenodd" fill="#1A7AA8" d="M9.639-270.542c0,2.515,0,5.032,0,8.185
			C6.891-265.124,8.34-267.749,9.639-270.542z"/>
		<path fill-rule="evenodd" clip-rule="evenodd" fill="#0076A0" d="M15.711-226.328c0.145,3.333,0.291,6.666,0.438,10
			C12.993-219.529,13.286-222.881,15.711-226.328z"/>
		<path fill-rule="evenodd" clip-rule="evenodd" fill="#0BB5DE" d="M21.878-260.625c-0.077-6.501,1.114-12.727,4.036-18.576
			c0.992,4.153-1.547,8.93,2.222,12.596c1.794-0.447,2.776-0.093,1.989,2.012C29.831-258.168,22.813-265.72,21.878-260.625z"/>
		<path fill-rule="evenodd" clip-rule="evenodd" fill="#17B3DF" d="M42.176-216.384c-0.471,1.618,1.078,4.442-1.932,4.523
			c-2.542,0.068-4.004-1.838-4.1-4.508c-0.013-2.903-0.074-5.839,4.006-6.022C42.315-220.891,42.067-218.577,42.176-216.384z"/>
		<path fill-rule="evenodd" clip-rule="evenodd" fill="#1EB0E2" d="M30.125-264.594c-0.663-0.671-1.326-1.342-1.989-2.012
			c0-2.611,0-5.222,0-10.204c1.981,4.067,2.987,6.135,3.995,8.202C32.091-266.956,31.75-265.454,30.125-264.594z"/>
		<path fill-rule="evenodd" clip-rule="evenodd" fill="#01B8D8" d="M42.176-216.384c-2.364-1.432-1.928-3.809-2.025-6.006
			c0.781-1.975-3.295-5.562,2.004-6.037c1.576,4.014,1.537,8.031,0.023,12.052L42.176-216.384z"/>
		<path fill-rule="evenodd" clip-rule="evenodd" fill="#00AEDF" d="M20.415-236.565c-0.218-2.649-0.437-5.297-0.655-7.946
			c0.219-1.303,0.438-2.607,0.655-3.911C23.011-244.469,23.016-240.518,20.415-236.565z"/>
		<path fill-rule="evenodd" clip-rule="evenodd" fill="#28B0E5" d="M42.178-216.375c-0.006-4.017-0.014-8.035-0.023-12.052
			c0.672,0.006,1.345,0.012,2.017,0.018C43.561-224.39,45.778-219.901,42.178-216.375z"/>
		<path fill-rule="evenodd" clip-rule="evenodd" fill="#23B4DE" d="M46.105-278.613c0,3.297,0,6.594,0,9.891
			c-1.796-4.805-4.862-7.577-9.926-7.97C38.976-279.979,42.762-278.151,46.105-278.613z"/>
		<path fill-rule="evenodd" clip-rule="evenodd" fill="#20B1E6" d="M43.975-262.052c-0.059,1.375-0.391,2.381-1.564,1.888
			c-0.697-0.292-1.355-1.259-1.545-2.04c-0.266-1.099,0.619-1.863,1.631-1.512C43.182-263.478,43.606-262.496,43.975-262.052z"/>
		<path fill-rule="evenodd" clip-rule="evenodd" fill="#07B39F" d="M40.749-157.922c-3.468-1.014-7.91,1.644-10.473-2.778
			C33.528-158.873,38.221-162.479,40.749-157.922z"/>
		<path fill-rule="evenodd" clip-rule="evenodd" fill="#E7F2F6" d="M-47.622-162.3c1.974,2.939,2.298,5.775-0.526,8.413
			C-47.179-156.642-50.789-159.684-47.622-162.3z"/>
		<path fill-rule="evenodd" clip-rule="evenodd" fill="#03A1CF" d="M-8.494-285.362c-4.396-7.497,0.123-13.358,0-19.268
			C-8.494-298.812-8.494-292.995-8.494-285.362z"/>
		<path fill-rule="evenodd" clip-rule="evenodd" fill="#0D9DC5" d="M-18.095-260.572c4.016,4.939,1.131,10.736,1.998,16.067
			C-20.093-249.447-17.21-255.243-18.095-260.572z"/>
	</g>
</g>
<g>
	<path fill="#2EC4C0" d="M1986.121,443.628l37.176,14.087c0,0-21.539-71.098,9.675-155.635l-50.717,21.35
		C1982.254,323.431,1963.825,378.398,1986.121,443.628"/>
	<path fill="#01B3A9" d="M1963.275,444.466l18.457,2.247c0,0-15.676-20.757,4.389-73.463l-25.26,5.964
		C1960.861,379.213,1949.365,417.888,1963.275,444.466"/>
	<path fill="#017EAA" d="M2009.197,463.322l35.586,4.87c0,0-21.852-55.403,12.942-136.109l-42.391,4.274
		C2015.334,336.356,1987.013,390.53,2009.197,463.322"/>
	<path fill="#0FB3DF" d="M2051.071,458.115l21.552,1.799c0,0-11.29-58.424,9.304-95.981l-28.716,3.385
		C2053.21,367.318,2031.472,408.827,2051.071,458.115"/>
</g>
<g>
	<g>
		<g>
			<path fill="#2EC4C0" d="M21.204,12.332l2.758-0.278C24.854,8.159,26.026,4.124,27.549,0L9.302,7.681c0,0-2.53,7.553-2.572,18.859
				l3.963-0.935c-1.736,4.562-2.728,8.457-3.233,11.744c0.601,4.29,1.621,8.858,3.233,13.576l7.117,2.697
				C12.141,29.675,21.204,12.332,21.204,12.332z"/>
		</g>
		<g>
			<path fill="#01B3A9" d="M6.73,26.54l-5.125,1.21c0,0-4.136,13.915,0.869,23.477l6.64,0.808c0,0-3.251-4.309-1.654-14.686
				C6.919,33.487,6.717,29.854,6.73,26.54z"/>
		</g>
		<g>
			<path fill="#008B84" d="M6.73,26.54c-0.013,3.313,0.189,6.947,0.73,10.809c0.506-3.287,1.497-7.182,3.233-11.744L6.73,26.54z"/>
		</g>
		<g>
			<path fill="#017EAA" d="M36.455,10.793l-12.493,1.26c-5.683,24.827,0.106,43.94,0.106,43.94l-6.258-2.372
				c0.341,1.44,0.733,2.903,1.186,4.389l12.803,1.752C31.799,59.763,23.937,39.83,36.455,10.793z"/>
		</g>
		<g>
			<path fill="#0D9DC5" d="M23.962,12.054l-2.758,0.278c0,0-9.062,17.343-3.393,41.291l6.258,2.372
				C24.068,55.994,18.279,36.88,23.962,12.054z"/>
		</g>
		<g>
			<path fill="#0FB3DF" d="M45.162,22.253l-10.331,1.218c0,0-7.821,14.934-0.77,32.666l7.754,0.647
				C41.815,56.785,37.753,35.765,45.162,22.253z"/>
		</g>
	</g>
	<g>
		<path d="M51.063,48.886h-1.583c-0.417,0-0.639-0.056-0.639-0.583V34.326c0-2.584,1.139-4.918,4.835-4.918h7.641
			c0.528,0,0.583,0.222,0.583,0.639v1.306c0,0.473-0.056,0.639-0.583,0.639h-7.641c-1.417,0-1.973,0.556-1.973,1.89v3.667h8.642
			c0.473,0,0.556,0.167,0.556,0.639v1.195c0,0.417-0.083,0.639-0.556,0.639h-8.642v8.28C51.702,48.83,51.536,48.886,51.063,48.886z"
			/>
		<path d="M64.346,34.27h1.723c0.333,0,0.5,0.028,0.5,0.445v7.335c0,3.167,0.639,4.696,4.057,4.696c0.417,0,1.25,0,2.39-0.194
			V34.715c0-0.417,0.139-0.445,0.5-0.445h1.723c0.333,0,0.5,0.028,0.5,0.445v11.893c0,1.333-0.639,2.112-1.945,2.334
			c-1.028,0.194-2.5,0.222-3.39,0.222c-4.779,0-6.558-2-6.558-7.03v-7.419C63.846,34.298,63.984,34.27,64.346,34.27z"/>
		<path d="M90.188,48.886h-1.723c-0.333,0-0.5-0.028-0.5-0.444v-7.336c0-3.167-0.917-4.696-4.334-4.696c-0.417,0-1.25,0-2.39,0.194
			v11.837c0,0.417-0.139,0.444-0.5,0.444h-1.723c-0.333,0-0.5-0.028-0.5-0.444V36.549c0-1.362,0.389-2.112,1.945-2.334
			c0.75-0.083,2.529-0.223,3.39-0.223c4.751,0,6.835,2.001,6.835,7.03v7.419C90.688,48.858,90.548,48.886,90.188,48.886z"/>
		<path d="M99.691,33.992c0.778,0,1.917,0.056,3.112,0.361v-5.335c0-0.417,0.139-0.444,0.5-0.444h1.75c0.333,0,0.5,0.027,0.5,0.444
			v18.617c0,0.25-0.111,0.445-0.361,0.528c-2,0.862-4.14,1.028-5.779,1.028c-4.751,0-6.502-2.917-6.502-7.363
			C92.911,37.688,94.939,33.992,99.691,33.992z M99.857,46.857c0.889,0,2.251-0.167,2.945-0.473v-9.642
			c-1.306-0.333-2.056-0.389-2.917-0.389c-2.334,0-4.14,1.473-4.14,5.474C95.745,45.496,97.273,46.857,99.857,46.857z"/>
		<path d="M109.556,29.436h1.611c0.473,0,0.639,0.055,0.639,0.583v18.283c0,0.528-0.167,0.583-0.639,0.583h-1.611
			c-0.417,0-0.639-0.056-0.639-0.583V30.019C108.917,29.491,109.139,29.436,109.556,29.436z"/>
		<path d="M126.812,48.886h-1.723c-0.333,0-0.5-0.028-0.5-0.444v-7.336c0-3.167-0.917-4.696-4.334-4.696c-0.417,0-1.25,0-2.39,0.194
			v11.837c0,0.417-0.139,0.444-0.5,0.444h-1.723c-0.333,0-0.5-0.028-0.5-0.444V36.549c0-1.362,0.389-2.112,1.945-2.334
			c0.75-0.083,2.529-0.223,3.39-0.223c4.751,0,6.835,2.001,6.835,7.03v7.419C127.312,48.858,127.172,48.886,126.812,48.886z"/>
		<path d="M131.869,29.38h6.391c3.529,0,6.002,2.278,6.002,5.557c0,2.223-1.195,3.918-3.057,4.668v0.139
			c1.528,0.444,1.973,1.417,2.334,2.723l1.611,5.863c0.083,0.194,0.083,0.556-0.389,0.556h-2.084c-0.194,0-0.444-0.028-0.556-0.389
			l-1.417-5.251c-0.583-2.084-1.917-2.612-3.723-2.612h-3.668v7.669c0,0.528-0.167,0.583-0.639,0.583h-1.667
			c-0.417,0-0.639-0.056-0.639-0.583V30.88C130.368,29.796,130.785,29.38,131.869,29.38z M137.954,32.02h-4.612v6.141h4.39
			c2.64,0,3.64-1.445,3.64-3.112C141.372,33.854,140.844,32.02,137.954,32.02z"/>
		<path d="M158.905,40.05c0,1.889-1.083,2.39-2.306,2.39h-7.558c0.083,3.223,1.945,4.39,4.223,4.39c1.223,0,2.529-0.389,3.279-0.806
			c0.278-0.139,0.473-0.083,0.583,0.167l0.667,1.306c0.139,0.306,0.083,0.5-0.167,0.639c-1.417,0.861-3.084,1.056-4.557,1.056
			c-4.251,0-6.78-2.278-6.78-7.53c0-4.862,2.834-7.669,6.502-7.669C157.016,33.992,158.905,36.382,158.905,40.05z M152.82,36.271
			c-2.279,0-3.584,2.028-3.668,4.001h7.169C156.321,38.077,155.626,36.271,152.82,36.271z"/>
		<path d="M172.132,48.247c-1.667,0.75-3.779,0.945-5.558,0.945c-4.834,0-6.057-2.167-6.057-4.64c0-2.445,1.473-4.974,6.168-4.974
			h3.167v-0.5c0-1.639-0.556-2.723-3.14-2.723c-1.334,0-3.001,0.333-3.834,0.556c-0.361,0.111-0.528,0.111-0.611-0.222l-0.361-1.361
			c-0.083-0.25,0-0.445,0.25-0.528c1.473-0.583,3.557-0.806,5.029-0.806c3.779,0,5.418,1.806,5.418,4.946v8.502
			C172.604,47.83,172.438,48.108,172.132,48.247z M166.853,41.912c-1.333,0-3.584,0.194-3.584,2.64c0,1.806,1.278,2.39,3.279,2.39
			c0.611,0,2.14-0.083,3.279-0.473v-4.557H166.853z"/>
		<path d="M180.635,48.858c-0.694,0.306-1.639,0.333-2.278,0.333c-1.973,0-2.695-0.861-2.695-2.862V29.019
			c0-0.417,0.139-0.444,0.5-0.444h1.778c0.361,0,0.5,0.027,0.5,0.444v16.561c0,1,0.25,1.223,0.917,1.223
			c0.333,0,0.695-0.028,1-0.056s0.389,0,0.417,0.306l0.167,1.223C180.969,48.608,180.969,48.664,180.635,48.858z"/>
		<path d="M181.108,36.021v-0.917c0-0.305,0.083-0.444,0.444-0.528l2.14-0.444l0.472-2.667c0.083-0.417,0.223-0.445,0.583-0.583
			l1.028-0.389c0.306-0.083,0.472-0.028,0.472,0.389v3.417h2.917c0.417,0,0.445,0.195,0.445,0.445v1.278
			c0,0.306-0.028,0.445-0.445,0.445h-2.917v8.669c0,1.223,0.528,1.667,1.723,1.667c0.473,0,1.556-0.111,2.112-0.194
			c0.361-0.083,0.445,0.028,0.473,0.25l0.278,1.445c0.028,0.222,0.083,0.389-0.25,0.5c-1.14,0.361-2.529,0.389-3.084,0.389
			c-2.917,0-3.974-1.223-3.974-3.89v-8.836h-1.973C181.135,36.465,181.108,36.271,181.108,36.021z"/>
		<path d="M193.945,54.693c-0.473,0-1.362-0.055-2.279-0.306c-0.306-0.083-0.417-0.222-0.333-0.472l0.333-1.389
			c0.083-0.333,0.195-0.361,0.5-0.278c0.639,0.139,0.833,0.194,1.361,0.194c1.334,0,2.056-0.444,2.501-1.806l0.639-1.917h-0.584
			c-0.583,0-1.028-0.028-1.361-1.112l-4.112-13.004c-0.056-0.194,0.028-0.306,0.25-0.306H193c0.306,0,0.333,0.083,0.417,0.278
			l2.111,6.863l1.5,5.141h0.167l1.667-5.168l2.278-6.835c0.083-0.194,0.111-0.278,0.417-0.278h2.056c0.222,0,0.306,0.111,0.25,0.306
			l-5.501,16.616C197.502,53.776,196.14,54.693,193.945,54.693z"/>
	</g>
</g>
</svg>
